<?xml version="1.0" standalone="no"?>
<!DOCTYPE svg PUBLIC "-//W3C//DTD SVG 20010904//EN"
 "http://www.w3.org/TR/2001/REC-SVG-20010904/DTD/svg10.dtd">
<svg version="1.0" xmlns="http://www.w3.org/2000/svg"
 width="300.000000pt" height="740.000000pt" viewBox="0 0 300.000000 740.000000"
 preserveAspectRatio="xMidYMid meet">

<g transform="translate(0.000000,740.000000) scale(0.100000,-0.100000)"
fill="#000000" stroke="none">
<path d="M910 7328 c-122 -101 -297 -275 -397 -395 -512 -614 -635 -1268 -393
-2098 86 -295 192 -563 445 -1130 172 -383 192 -431 264 -610 204 -506 295
-867 307 -1224 19 -501 -124 -922 -455 -1349 -86 -110 -330 -360 -441 -452
l-79 -65 1102 -3 1102 -3 79 83 c101 105 178 202 260 326 401 610 394 1268
-24 2102 -149 298 -296 539 -674 1105 -511 765 -616 934 -790 1283 -290 580
-377 1093 -262 1539 78 300 241 583 505 872 l73 81 -273 0 -274 0 -75 -62z
m100 -223 c0 -3 -35 -51 -78 -107 -43 -57 -100 -138 -127 -180 -42 -67 -52
-78 -77 -78 -15 0 -28 4 -28 10 0 24 160 249 234 328 17 18 40 32 53 32 13 0
23 -2 23 -5z m-370 -608 c0 -2 -9 -30 -20 -63 -27 -76 -70 -246 -70 -273 0
-18 -6 -21 -45 -21 -51 0 -49 -12 -18 115 15 61 67 217 78 235 6 9 75 15 75 7z
m-112 -764 c7 -87 15 -168 18 -180 6 -22 3 -23 -44 -23 -49 0 -49 0 -56 38 -3
20 -9 101 -13 180 l-6 142 44 0 45 0 12 -157z m102 -543 c25 -84 65 -202 85
-253 7 -16 2 -18 -50 -15 l-58 3 -19 55 c-24 70 -88 288 -88 301 0 6 23 9 51
7 l51 -3 28 -95z m280 -690 c49 -99 90 -182 90 -185 0 -3 -27 -5 -60 -5 l-60
0 -34 68 c-40 79 -136 289 -136 297 0 3 25 5 55 5 l55 0 90 -180z m325 -602
c54 -95 100 -176 102 -180 2 -5 -27 -8 -64 -8 l-69 0 -44 78 c-55 98 -150 274
-150 279 0 2 29 3 63 3 l64 0 98 -172z m348 -612 c53 -95 97 -176 97 -180 0
-3 -33 -6 -74 -6 l-74 0 -83 158 c-45 86 -89 167 -97 180 l-14 22 74 0 75 0
96 -174z m263 -503 c36 -77 124 -283 124 -289 0 -2 -37 -4 -83 -4 l-83 0 -13
38 c-22 61 -123 296 -132 308 -15 19 2 24 77 24 l73 0 37 -77z m234 -604 c19
-63 70 -274 70 -290 0 -4 -40 -6 -90 -5 -49 0 -90 2 -90 2 0 11 -54 254 -65
294 -8 30 -15 58 -15 63 0 4 38 7 85 7 l84 0 21 -71z m97 -701 c-3 -90 -9
-171 -12 -180 -6 -15 -21 -18 -102 -18 l-95 0 6 28 c3 15 8 96 12 180 l7 152
95 0 95 0 -6 -162z m-92 -519 c-13 -38 -48 -119 -76 -180 l-52 -109 -103 0
-103 0 49 100 c27 56 61 136 77 180 l28 80 102 0 102 0 -24 -71z m-295 -537
c0 -14 -127 -166 -221 -265 l-94 -97 -107 0 c-60 0 -108 2 -108 5 0 3 44 50
98 104 53 54 126 135 162 180 l65 81 103 0 c56 0 102 -4 102 -8z"/>
</g>
</svg>
